<?xml version="1.0" encoding="utf-8"?>
<!-- Created by UniConvertor 2.0rc5 (https://sk1project.net/) -->
<svg xmlns="http://www.w3.org/2000/svg" height="100.0px" width="100.0px" version="1.1" xmlns:xlink="http://www.w3.org/1999/xlink" id="e3bf39c4-4c96-11ed-bb26-a8a1598cb569">

<g>
	<path style="fill:#ffffff;" d="M 0.0,0.0 L 0.0,100.0 100.0,100.0 100.0,0.0 0.0,0.0 Z" />
	<path style="fill:#cacaca;" d="M 46.0,9.0 L 47.0,10.0 46.0,9.0 Z" />
	<path style="fill:#777777;" d="M 47.0,9.0 L 48.0,10.0 47.0,9.0 Z" />
	<path style="fill:#383838;" d="M 48.0,9.0 L 48.0,10.0 52.0,10.0 C 50.494,9.317 49.6852,9.1741 48.0,9.0 Z" />
	<path style="fill:#898989;" d="M 52.0,9.0 L 53.0,10.0 52.0,9.0 Z" />
	<path style="fill:#d5d5d5;" d="M 53.0,9.0 L 54.0,10.0 53.0,9.0 Z" />
	<path style="fill:#595959;" d="M 45.0,10.0 L 46.0,11.0 45.0,10.0 Z" />
	<path style="fill:#010101;" d="M 28.0,58.0 C 25.4325,58.7392 23.3272,59.6825 21.0,61.0 L 21.0,63.0 C 27.1019,65.7047 33.6682,67.8894 40.0,70.0 38.4206,72.652 36.9666,75.0682 36.0,78.0 44.5432,80.6264 52.8235,89.8478 61.0,81.0 59.5215,80.0143 59.7968,80.0 58.0,80.0 60.7376,74.7665 67.3867,75.244 70.2485,70.6134 72.5779,66.8442 65.2256,64.0256 68.466,60.7238 73.3652,55.7319 86.8499,58.913 88.6381,49.9568 90.1345,42.4619 78.5502,34.5502 74.0,30.0 68.2884,24.2884 60.1165,12.218 52.0,10.3225 40.7019,7.684 25.9422,28.9749 19.0039,36.0 16.3608,38.6761 11.3886,42.6664 11.5965,46.8912 11.8881,52.819 25.1213,52.7278 28.0,58.0 Z" />
	<path style="fill:#777777;" d="M 54.0,10.0 L 55.0,11.0 54.0,10.0 Z" />
	<path style="fill:#bababa;" d="M 43.0,11.0 L 44.0,12.0 43.0,11.0 Z" />
	<path style="fill:#2a2a2a;" d="M 44.0,11.0 L 45.0,12.0 44.0,11.0 Z" />
	<path style="fill:#484848;" d="M 55.0,11.0 L 56.0,12.0 55.0,11.0 Z" />
	<path style="fill:#bababa;" d="M 42.0,12.0 L 43.0,13.0 42.0,12.0 Z" />
	<path style="fill:#383838;" d="M 56.0,12.0 C 56.5451,13.6352 56.3648,13.4549 58.0,14.0 57.4549,12.3648 57.6352,12.5451 56.0,12.0 Z" />
	<path style="fill:#d5d5d5;" d="M 57.0,12.0 L 58.0,13.0 57.0,12.0 Z" />
	<path style="fill:#bababa;" d="M 41.0,13.0 L 42.0,14.0 41.0,13.0 Z" />
	<path style="fill:#999999;" d="M 48.0,13.0 L 48.0,14.0 51.0,14.0 C 49.7516,13.3152 49.4516,13.2512 48.0,13.0 Z" />
	<path style="fill:#383838;" d="M 51.0,13.0 L 52.0,14.0 51.0,13.0 Z" />
	<path style="fill:#bababa;" d="M 40.0,14.0 L 41.0,15.0 40.0,14.0 Z" />
	<path style="fill:#676767;" d="M 46.0,14.0 L 47.0,15.0 46.0,14.0 Z" />
	<path style="fill:#ffffff;" d="M 32.0,33.0 L 42.0,32.0 C 42.7657,29.1957 43.77,26.6347 45.0,24.0 46.2654,26.9378 47.1268,29.9232 48.0,33.0 52.2644,31.0241 55.205,29.3691 60.0,30.0 L 61.0,24.0 C 63.3272,25.3175 65.4325,26.2607 68.0,27.0 64.2133,22.8567 55.8098,14.9272 50.0,14.4475 41.6213,13.7558 32.4938,25.6416 32.0,33.0 Z" />
	<path style="fill:#777777;" d="M 52.0,14.0 L 53.0,15.0 52.0,14.0 Z" />
	<path style="fill:#383838;" d="M 58.0,14.0 C 59.1034,15.4566 59.5434,15.8966 61.0,17.0 59.8966,15.5434 59.4566,15.1034 58.0,14.0 Z" />
	<path style="fill:#d5d5d5;" d="M 59.0,14.0 L 60.0,15.0 59.0,14.0 Z" />
	<path style="fill:#bababa;" d="M 39.0,15.0 L 40.0,16.0 39.0,15.0 Z" />
	<path style="fill:#999999;" d="M 45.0,15.0 L 46.0,16.0 45.0,15.0 Z" />
	<path style="fill:#a8a8a8;" d="M 53.0,15.0 L 54.0,16.0 53.0,15.0 Z" />
	<path style="fill:#d5d5d5;" d="M 60.0,15.0 L 61.0,16.0 60.0,15.0 Z" />
	<path style="fill:#bababa;" d="M 38.0,16.0 L 39.0,17.0 38.0,16.0 Z" />
	<path style="fill:#484848;" d="M 43.0,16.0 L 44.0,17.0 43.0,16.0 Z" />
	<path style="fill:#cacaca;" d="M 44.0,16.0 L 45.0,17.0 44.0,16.0 M 54.0,16.0 L 55.0,17.0 54.0,16.0 Z" />
	<path style="fill:#484848;" d="M 55.0,16.0 L 56.0,17.0 55.0,16.0 Z" />
	<path style="fill:#bababa;" d="M 37.0,17.0 L 38.0,18.0 37.0,17.0 Z" />
	<path style="fill:#777777;" d="M 42.0,17.0 L 43.0,18.0 42.0,17.0 M 56.0,17.0 L 57.0,18.0 56.0,17.0 Z" />
	<path style="fill:#383838;" d="M 61.0,17.0 L 62.0,18.0 61.0,17.0 Z" />
	<path style="fill:#bababa;" d="M 36.0,18.0 L 37.0,19.0 36.0,18.0 Z" />
	<path style="fill:#383838;" d="M 40.0,18.0 L 41.0,19.0 40.0,18.0 Z" />
	<path style="fill:#a8a8a8;" d="M 41.0,18.0 L 42.0,19.0 41.0,18.0 M 57.0,18.0 L 58.0,19.0 57.0,18.0 Z" />
	<path style="fill:#2a2a2a;" d="M 58.0,18.0 L 59.0,19.0 58.0,18.0 Z" />
	<path style="fill:#383838;" d="M 62.0,18.0 L 63.0,19.0 62.0,18.0 Z" />
	<path style="fill:#bababa;" d="M 35.0,19.0 L 36.0,20.0 35.0,19.0 Z" />
	<path style="fill:#777777;" d="M 39.0,19.0 L 40.0,20.0 39.0,19.0 Z" />
	<path style="fill:#d5d5d5;" d="M 58.0,19.0 L 59.0,20.0 58.0,19.0 Z" />
	<path style="fill:#595959;" d="M 59.0,19.0 L 60.0,20.0 59.0,19.0 Z" />
	<path style="fill:#383838;" d="M 63.0,19.0 L 64.0,20.0 63.0,19.0 Z" />
	<path style="fill:#bababa;" d="M 34.0,20.0 L 35.0,21.0 34.0,20.0 Z" />
	<path style="fill:#898989;" d="M 38.0,20.0 L 39.0,21.0 38.0,20.0 Z" />
	<path style="fill:#777777;" d="M 60.0,20.0 L 61.0,21.0 60.0,20.0 Z" />
	<path style="fill:#383838;" d="M 64.0,20.0 C 65.1034,21.4566 65.5434,21.8966 67.0,23.0 65.8966,21.5434 65.4566,21.1034 64.0,20.0 Z" />
	<path style="fill:#d5d5d5;" d="M 65.0,20.0 L 66.0,21.0 65.0,20.0 Z" />
	<path style="fill:#bababa;" d="M 33.0,21.0 L 34.0,22.0 33.0,21.0 Z" />
	<path style="fill:#999999;" d="M 37.0,21.0 L 38.0,22.0 37.0,21.0 Z" />
	<path style="fill:#a8a8a8;" d="M 61.0,21.0 L 62.0,22.0 61.0,21.0 Z" />
	<path style="fill:#2a2a2a;" d="M 62.0,21.0 L 63.0,22.0 62.0,21.0 Z" />
	<path style="fill:#d5d5d5;" d="M 66.0,21.0 L 67.0,22.0 66.0,21.0 Z" />
	<path style="fill:#bababa;" d="M 32.0,22.0 L 33.0,23.0 32.0,22.0 Z" />
	<path style="fill:#898989;" d="M 36.0,22.0 L 37.0,23.0 36.0,22.0 Z" />
	<path style="fill:#d5d5d5;" d="M 62.0,22.0 L 63.0,23.0 62.0,22.0 Z" />
	<path style="fill:#595959;" d="M 63.0,22.0 L 64.0,23.0 63.0,22.0 Z" />
	<path style="fill:#bababa;" d="M 31.0,23.0 L 32.0,24.0 31.0,23.0 Z" />
	<path style="fill:#898989;" d="M 35.0,23.0 L 36.0,24.0 35.0,23.0 M 64.0,23.0 L 65.0,24.0 64.0,23.0 Z" />
	<path style="fill:#383838;" d="M 67.0,23.0 L 68.0,24.0 67.0,23.0 Z" />
	<path style="fill:#bababa;" d="M 30.0,24.0 L 31.0,25.0 30.0,24.0 Z" />
	<path style="fill:#676767;" d="M 34.0,24.0 L 35.0,25.0 34.0,24.0 Z" />
	<path style="fill:#cacaca;" d="M 44.6667,24.3333 C 44.2222,24.7778 45.2778,24.7222 45.3333,24.6667 45.7778,24.2222 44.7222,24.2778 44.6667,24.3333 M 61.0,24.0 L 62.0,25.0 61.0,24.0 Z" />
	<path style="fill:#bababa;" d="M 65.0,24.0 L 66.0,25.0 65.0,24.0 Z" />
	<path style="fill:#383838;" d="M 66.0,24.0 L 67.0,25.0 66.0,24.0 M 68.0,24.0 L 69.0,25.0 68.0,24.0 Z" />
	<path style="fill:#bababa;" d="M 29.0,25.0 L 30.0,26.0 29.0,25.0 Z" />
	<path style="fill:#484848;" d="M 33.0,25.0 L 34.0,26.0 33.0,25.0 Z" />
	<path style="fill:#777777;" d="M 44.6667,25.3333 C 44.2222,25.7778 45.2778,25.7222 45.3333,25.6667 45.7778,25.2222 44.7222,25.2778 44.6667,25.3333 Z" />
	<path style="fill:#a8a8a8;" d="M 60.3333,25.6667 C 60.2778,25.7222 60.2222,26.7778 60.6667,26.3333 60.7223,26.2777 60.7778,25.2222 60.3333,25.6667 Z" />
	<path style="fill:#595959;" d="M 62.0,25.0 L 63.0,26.0 62.0,25.0 Z" />
	<path style="fill:#cacaca;" d="M 63.0,25.0 L 64.0,26.0 63.0,25.0 Z" />
	<path style="fill:#676767;" d="M 67.0,25.0 L 68.0,26.0 67.0,25.0 Z" />
	<path style="fill:#383838;" d="M 69.0,25.0 L 70.0,26.0 69.0,25.0 Z" />
	<path style="fill:#bababa;" d="M 28.0,26.0 L 29.0,27.0 28.0,26.0 Z" />
	<path style="fill:#cacaca;" d="M 33.0,26.0 L 34.0,27.0 33.0,26.0 Z" />
	<path style="fill:#2a2a2a;" d="M 44.6667,26.3333 C 44.2222,26.7778 45.2778,26.7222 45.3333,26.6667 45.7778,26.2222 44.7222,26.2778 44.6667,26.3333 Z" />
	<path style="fill:#595959;" d="M 64.0,26.0 L 65.0,27.0 64.0,26.0 Z" />
	<path style="fill:#cacaca;" d="M 65.0,26.0 L 66.0,27.0 65.0,26.0 Z" />
	<path style="fill:#898989;" d="M 68.0,26.0 L 69.0,27.0 68.0,26.0 Z" />
	<path style="fill:#383838;" d="M 70.0,26.0 C 71.3303,27.7525 72.2475,28.6697 74.0,30.0 72.6697,28.2475 71.7525,27.3303 70.0,26.0 Z" />
	<path style="fill:#d5d5d5;" d="M 71.0,26.0 L 72.0,27.0 71.0,26.0 Z" />
	<path style="fill:#bababa;" d="M 27.0,27.0 L 28.0,28.0 27.0,27.0 Z" />
	<path style="fill:#999999;" d="M 32.0,27.0 L 33.0,28.0 32.0,27.0 Z" />
	<path style="fill:#a8a8a8;" d="M 43.0,27.0 L 44.0,28.0 43.0,27.0 Z" />
	<path style="fill:#cacaca;" d="M 46.0,27.0 L 47.0,28.0 46.0,27.0 Z" />
	<path style="fill:#676767;" d="M 60.0,27.0 L 60.0,30.0 61.0,30.0 C 60.7488,28.5484 60.6848,28.2483 60.0,27.0 Z" />
	<path style="fill:#595959;" d="M 66.0,27.0 L 67.0,28.0 66.0,27.0 Z" />
	<path style="fill:#bababa;" d="M 67.0,27.0 L 68.0,28.0 67.0,27.0 Z" />
	<path style="fill:#e3e3e3;" d="M 68.0,27.0 L 69.0,28.0 68.0,27.0 Z" />
	<path style="fill:#484848;" d="M 69.0,27.0 L 68.0,29.0 70.0,29.0 C 70.0,27.1468 70.2997,27.6498 69.0,27.0 Z" />
	<path style="fill:#d5d5d5;" d="M 72.0,27.0 L 73.0,28.0 72.0,27.0 Z" />
	<path style="fill:#bababa;" d="M 26.0,28.0 L 27.0,29.0 26.0,28.0 Z" />
	<path style="fill:#383838;" d="M 31.0,28.0 L 32.0,29.0 31.0,28.0 Z" />
	<path style="fill:#484848;" d="M 43.0,28.0 L 44.0,29.0 43.0,28.0 Z" />
	<path style="fill:#898989;" d="M 46.0,28.0 L 47.0,29.0 46.0,28.0 Z" />
	<path style="fill:#d5d5d5;" d="M 73.0,28.0 L 74.0,29.0 73.0,28.0 Z" />
	<path style="fill:#bababa;" d="M 25.0,29.0 L 26.0,30.0 25.0,29.0 Z" />
	<path style="fill:#777777;" d="M 31.0,29.0 L 31.0,33.0 32.0,33.0 C 31.8259,31.3148 31.683,30.5061 31.0,29.0 Z" />
	<path style="fill:#cacaca;" d="M 42.0,29.0 L 43.0,30.0 42.0,29.0 Z" />
	<path style="fill:#484848;" d="M 46.0,29.0 L 47.0,30.0 46.0,29.0 Z" />
	<path style="fill:#676767;" d="M 54.0,29.0 L 55.0,30.0 54.0,29.0 Z" />
	<path style="fill:#777777;" d="M 56.0,29.0 L 57.0,30.0 56.0,29.0 Z" />
	<path style="fill:#cacaca;" d="M 57.0,29.0 L 58.0,30.0 57.0,29.0 Z" />
	<path style="fill:#bababa;" d="M 24.0,30.0 L 25.0,31.0 24.0,30.0 Z" />
	<path style="fill:#777777;" d="M 42.0,30.0 L 43.0,31.0 42.0,30.0 Z" />
	<path style="fill:#a8a8a8;" d="M 52.0,30.0 L 53.0,31.0 52.0,30.0 Z" />
	<path style="fill:#2a2a2a;" d="M 53.0,30.0 L 54.0,31.0 53.0,30.0 Z" />
	<path style="fill:#676767;" d="M 58.0,30.0 L 59.0,31.0 58.0,30.0 Z" />
	<path style="fill:#bababa;" d="M 59.0,30.0 L 60.0,31.0 59.0,30.0 Z" />
	<path style="fill:#383838;" d="M 74.0,30.0 C 75.1034,31.4567 75.5433,31.8966 77.0,33.0 75.8966,31.5434 75.4566,31.1034 74.0,30.0 Z" />
	<path style="fill:#cacaca;" d="M 75.0,30.0 L 76.0,31.0 75.0,30.0 Z" />
	<path style="fill:#bababa;" d="M 23.0,31.0 L 24.0,32.0 23.0,31.0 Z" />
	<path style="fill:#a8a8a8;" d="M 47.0,31.0 L 48.0,32.0 47.0,31.0 Z" />
	<path style="fill:#676767;" d="M 51.0,31.0 L 52.0,32.0 51.0,31.0 Z" />
	<path style="fill:#d5d5d5;" d="M 76.0,31.0 L 77.0,32.0 76.0,31.0 Z" />
	<path style="fill:#bababa;" d="M 22.0,32.0 L 23.0,33.0 22.0,32.0 Z" />
	<path style="fill:#cacaca;" d="M 37.0,32.0 L 37.0,33.0 41.0,33.0 C 39.494,32.317 38.6852,32.1741 37.0,32.0 Z" />
	<path style="fill:#595959;" d="M 41.0,32.0 L 42.0,33.0 41.0,32.0 Z" />
	<path style="fill:#676767;" d="M 47.0,32.0 L 48.0,33.0 47.0,32.0 Z" />
	<path style="fill:#a8a8a8;" d="M 49.0,32.0 L 50.0,33.0 49.0,32.0 Z" />
	<path style="fill:#383838;" d="M 50.0,32.0 L 51.0,33.0 50.0,32.0 Z" />
	<path style="fill:#bababa;" d="M 21.0,33.0 L 22.0,34.0 21.0,33.0 Z" />
	<path style="fill:#484848;" d="M 31.0,33.0 L 32.0,34.0 31.0,33.0 Z" />
	<path style="fill:#595959;" d="M 32.0,33.0 L 32.0,34.0 35.0,34.0 C 33.7517,33.3152 33.4516,33.2512 32.0,33.0 M 48.0,33.0 L 49.0,34.0 48.0,33.0 Z" />
	<path style="fill:#383838;" d="M 77.0,33.0 L 78.0,34.0 77.0,33.0 Z" />
	<path style="fill:#bababa;" d="M 20.0,34.0 L 21.0,35.0 20.0,34.0 Z" />
	<path style="fill:#383838;" d="M 78.0,34.0 C 79.3303,35.7525 80.2475,36.6697 82.0,38.0 80.6697,36.2475 79.7525,35.3303 78.0,34.0 Z" />
	<path style="fill:#d5d5d5;" d="M 79.0,34.0 L 80.0,35.0 79.0,34.0 Z" />
	<path style="fill:#bababa;" d="M 19.0,35.0 L 20.0,36.0 19.0,35.0 Z" />
	<path style="fill:#d5d5d5;" d="M 80.0,35.0 L 81.0,36.0 80.0,35.0 Z" />
	<path style="fill:#bababa;" d="M 18.0,36.0 L 19.0,37.0 18.0,36.0 Z" />
	<path style="fill:#d5d5d5;" d="M 81.0,36.0 L 82.0,37.0 81.0,36.0 Z" />
	<path style="fill:#bababa;" d="M 17.0,37.0 L 18.0,38.0 17.0,37.0 M 16.0,38.0 L 17.0,39.0 16.0,38.0 Z" />
	<path style="fill:#383838;" d="M 82.0,38.0 C 83.5489,40.1357 84.8643,41.4511 87.0,43.0 85.4511,40.8643 84.1357,39.5489 82.0,38.0 Z" />
	<path style="fill:#cacaca;" d="M 83.0,38.0 L 84.0,39.0 83.0,38.0 Z" />
	<path style="fill:#bababa;" d="M 15.0,39.0 L 16.0,40.0 15.0,39.0 Z" />
	<path style="fill:#d5d5d5;" d="M 84.0,39.0 L 85.0,40.0 84.0,39.0 Z" />
	<path style="fill:#bababa;" d="M 14.0,40.0 L 15.0,41.0 14.0,40.0 Z" />
	<path style="fill:#d5d5d5;" d="M 85.0,40.0 L 86.0,41.0 85.0,40.0 Z" />
	<path style="fill:#bababa;" d="M 13.0,41.0 L 14.0,42.0 13.0,41.0 Z" />
	<path style="fill:#d5d5d5;" d="M 86.0,41.0 L 87.0,42.0 86.0,41.0 Z" />
	<path style="fill:#bababa;" d="M 12.0,42.0 L 13.0,43.0 12.0,42.0 Z" />
	<path style="fill:#2a2a2a;" d="M 12.0,43.0 L 13.0,44.0 12.0,43.0 Z" />
	<path style="fill:#484848;" d="M 87.0,43.0 L 88.0,44.0 87.0,43.0 Z" />
	<path style="fill:#676767;" d="M 11.0,44.0 L 12.0,45.0 11.0,44.0 Z" />
	<path style="fill:#898989;" d="M 88.0,44.0 L 89.0,45.0 88.0,44.0 Z" />
	<path style="fill:#cacaca;" d="M 10.0,45.0 L 11.0,46.0 10.0,45.0 Z" />
	<path style="fill:#2a2a2a;" d="M 88.0,45.0 L 89.0,46.0 88.0,45.0 Z" />
	<path style="fill:#898989;" d="M 10.0,46.0 L 11.0,47.0 10.0,46.0 Z" />
	<path style="fill:#bababa;" d="M 89.0,46.0 L 90.0,47.0 89.0,46.0 Z" />
	<path style="fill:#595959;" d="M 10.3333,47.6667 C 10.2778,47.7222 10.2222,48.7778 10.6667,48.3333 10.7222,48.2778 10.7778,47.2222 10.3333,47.6667 Z" />
	<path style="fill:#777777;" d="M 89.0,47.0 L 89.0,51.0 90.0,51.0 C 89.8259,49.3148 89.683,48.506 89.0,47.0 Z" />
	<path style="fill:#bababa;" d="M 10.0,49.0 L 11.0,50.0 10.0,49.0 Z" />
	<path style="fill:#484848;" d="M 11.0,49.0 L 12.0,50.0 11.0,49.0 Z" />
	<path style="fill:#999999;" d="M 12.0,50.0 L 13.0,51.0 12.0,50.0 Z" />
	<path style="fill:#484848;" d="M 13.0,50.0 L 14.0,51.0 13.0,50.0 Z" />
	<path style="fill:#cacaca;" d="M 14.0,51.0 L 15.0,52.0 14.0,51.0 Z" />
	<path style="fill:#898989;" d="M 15.0,51.0 L 16.0,52.0 15.0,51.0 Z" />
	<path style="fill:#2a2a2a;" d="M 16.6667,51.3333 C 16.2222,51.7778 17.2778,51.7222 17.3333,51.6667 17.7778,51.2222 16.7222,51.2778 16.6667,51.3333 Z" />
	<path style="fill:#a8a8a8;" d="M 89.0,51.0 L 90.0,52.0 89.0,51.0 Z" />
	<path style="fill:#999999;" d="M 18.0,52.0 L 19.0,53.0 18.0,52.0 Z" />
	<path style="fill:#676767;" d="M 19.0,52.0 L 20.0,53.0 19.0,52.0 Z" />
	<path style="fill:#595959;" d="M 88.0,52.0 L 89.0,53.0 88.0,52.0 Z" />
	<path style="fill:#bababa;" d="M 21.0,53.0 L 22.0,54.0 21.0,53.0 Z" />
	<path style="fill:#777777;" d="M 22.0,53.0 L 23.0,54.0 22.0,53.0 Z" />
	<path style="fill:#676767;" d="M 87.0,53.0 L 88.0,54.0 87.0,53.0 Z" />
	<path style="fill:#cacaca;" d="M 24.0,54.0 L 25.0,55.0 24.0,54.0 Z" />
	<path style="fill:#777777;" d="M 25.0,54.0 L 26.0,55.0 25.0,54.0 Z" />
	<path style="fill:#383838;" d="M 26.0,54.0 L 27.0,55.0 26.0,54.0 Z" />
	<path style="fill:#484848;" d="M 85.0,54.0 L 86.0,55.0 85.0,54.0 Z" />
	<path style="fill:#a8a8a8;" d="M 86.0,54.0 L 87.0,55.0 86.0,54.0 Z" />
	<path style="fill:#898989;" d="M 27.0,55.0 L 28.0,56.0 27.0,55.0 Z" />
	<path style="fill:#484848;" d="M 83.0,55.0 L 84.0,56.0 83.0,55.0 Z" />
	<path style="fill:#a8a8a8;" d="M 84.0,55.0 L 85.0,56.0 84.0,55.0 Z" />
	<path style="fill:#2a2a2a;" d="M 80.0,56.0 L 81.0,57.0 80.0,56.0 Z" />
	<path style="fill:#777777;" d="M 81.0,56.0 L 82.0,57.0 81.0,56.0 Z" />
	<path style="fill:#cacaca;" d="M 82.0,56.0 L 83.0,57.0 82.0,56.0 Z" />
	<path style="fill:#d5d5d5;" d="M 26.0,57.0 L 27.0,58.0 26.0,57.0 Z" />
	<path style="fill:#595959;" d="M 27.0,57.0 L 28.0,58.0 27.0,57.0 Z" />
	<path style="fill:#777777;" d="M 37.0,57.0 L 38.0,58.0 37.0,57.0 Z" />
	<path style="fill:#484848;" d="M 38.0,57.0 L 39.0,58.0 38.0,57.0 Z" />
	<path style="fill:#676767;" d="M 78.0,57.0 L 79.0,58.0 78.0,57.0 Z" />
	<path style="fill:#a8a8a8;" d="M 79.0,57.0 L 80.0,58.0 79.0,57.0 Z" />
	<path style="fill:#777777;" d="M 25.0,58.0 L 26.0,59.0 25.0,58.0 Z" />
	<path style="fill:#a8a8a8;" d="M 37.0,58.0 L 38.0,59.0 37.0,58.0 Z" />
	<path style="fill:#d5d5d5;" d="M 38.0,58.0 L 38.0,59.0 41.0,60.0 C 40.0198,58.2167 40.0924,58.4057 38.0,58.0 Z" />
	<path style="fill:#777777;" d="M 41.0,58.0 L 42.0,59.0 41.0,58.0 Z" />
	<path style="fill:#151515;" d="M 42.6667,58.3333 C 42.2222,58.7778 43.2778,58.7222 43.3333,58.6667 43.7778,58.2222 42.7222,58.2778 42.6667,58.3333 Z" />
	<path style="fill:#595959;" d="M 74.0,58.0 L 75.0,59.0 74.0,58.0 Z" />
	<path style="fill:#898989;" d="M 75.0,58.0 L 76.0,59.0 75.0,58.0 Z" />
	<path style="fill:#bababa;" d="M 76.0,58.0 L 77.0,59.0 76.0,58.0 Z" />
	<path style="fill:#cacaca;" d="M 22.0,59.0 L 23.0,60.0 22.0,59.0 Z" />
	<path style="fill:#777777;" d="M 23.0,59.0 L 24.0,60.0 23.0,59.0 Z" />
	<path style="fill:#484848;" d="M 38.0,59.0 L 39.0,60.0 38.0,59.0 Z" />
	<path style="fill:#999999;" d="M 39.0,59.0 L 40.0,60.0 39.0,59.0 Z" />
	<path style="fill:#ffffff;" d="M 41.0,59.0 L 41.0,60.0 44.0,60.0 C 42.7516,59.3152 42.4516,59.2512 41.0,59.0 Z" />
	<path style="fill:#cacaca;" d="M 44.3333,59.6667 C 44.2778,59.7222 44.2222,60.7778 44.6667,60.3333 44.7222,60.2778 44.7778,59.2222 44.3333,59.6667 Z" />
	<path style="fill:#676767;" d="M 45.6667,59.3333 C 45.2222,59.7778 46.2778,59.7222 46.3333,59.6667 46.7778,59.2222 45.7222,59.2778 45.6667,59.3333 Z" />
	<path style="fill:#383838;" d="M 47.0,59.0 L 47.0,60.0 50.0,60.0 C 48.7516,59.3152 48.4516,59.2512 47.0,59.0 M 69.0,59.0 L 70.0,60.0 69.0,59.0 Z" />
	<path style="fill:#676767;" d="M 70.0,59.0 L 71.0,60.0 70.0,59.0 Z" />
	<path style="fill:#cacaca;" d="M 71.6667,59.3333 C 71.2222,59.7778 72.2778,59.7222 72.3333,59.6667 72.7778,59.2222 71.7222,59.2778 71.6667,59.3333 Z" />
	<path style="fill:#777777;" d="M 21.0,60.0 L 22.0,61.0 21.0,60.0 Z" />
	<path style="fill:#383838;" d="M 41.0,60.0 L 42.0,61.0 41.0,60.0 Z" />
	<path style="fill:#676767;" d="M 42.0,60.0 L 43.0,61.0 42.0,60.0 Z" />
	<path style="fill:#999999;" d="M 43.0,60.0 L 44.0,61.0 43.0,60.0 Z" />
	<path style="fill:#ffffff;" d="M 45.0,60.0 L 45.0,61.0 50.0,61.0 C 48.231,60.2211 46.9641,60.0876 45.0,60.0 Z" />
	<path style="fill:#2a2a2a;" d="M 50.3333,60.6667 C 50.2778,60.7222 50.2222,61.7778 50.6667,61.3333 50.7222,61.2778 50.7778,60.2222 50.3333,60.6667 Z" />
	<path style="fill:#676767;" d="M 67.0,60.0 L 68.0,61.0 67.0,60.0 Z" />
	<path style="fill:#cacaca;" d="M 68.0,60.0 L 69.0,61.0 68.0,60.0 Z" />
	<path style="fill:#777777;" d="M 20.3333,61.6667 C 20.2778,61.7222 20.2222,62.7778 20.6667,62.3333 20.7222,62.2778 20.7778,61.2222 20.3333,61.6667 Z" />
	<path style="fill:#676767;" d="M 46.6667,61.3333 C 46.2222,61.7778 47.2778,61.7222 47.3333,61.6667 47.7778,61.2222 46.7222,61.2778 46.6667,61.3333 Z" />
	<path style="fill:#a8a8a8;" d="M 48.6667,61.3333 C 48.2222,61.7778 49.2778,61.7222 49.3333,61.6667 49.7778,61.2222 48.7222,61.2778 48.6667,61.3333 Z" />
	<path style="fill:#999999;" d="M 66.0,61.0 L 67.0,62.0 66.0,61.0 Z" />
	<path style="fill:#a8a8a8;" d="M 21.0,63.0 L 22.0,64.0 21.0,63.0 Z" />
	<path style="fill:#898989;" d="M 66.0,63.0 L 67.0,64.0 66.0,63.0 Z" />
	<path style="fill:#bababa;" d="M 23.0,64.0 L 24.0,65.0 23.0,64.0 Z" />
	<path style="fill:#595959;" d="M 24.0,64.0 L 25.0,65.0 24.0,64.0 Z" />
	<path style="fill:#676767;" d="M 67.0,64.0 L 68.0,65.0 67.0,64.0 Z" />
	<path style="fill:#999999;" d="M 26.0,65.0 L 27.0,66.0 26.0,65.0 Z" />
	<path style="fill:#484848;" d="M 27.0,65.0 L 28.0,66.0 27.0,65.0 Z" />
	<path style="fill:#a8a8a8;" d="M 69.0,65.0 L 70.0,66.0 69.0,65.0 Z" />
	<path style="fill:#999999;" d="M 29.0,66.0 L 30.0,67.0 29.0,66.0 Z" />
	<path style="fill:#595959;" d="M 30.0,66.0 L 31.0,67.0 30.0,66.0 M 70.0,66.0 L 71.0,67.0 70.0,66.0 Z" />
	<path style="fill:#d5d5d5;" d="M 71.0,66.0 L 72.0,67.0 71.0,66.0 Z" />
	<path style="fill:#bababa;" d="M 77.0,66.0 L 78.0,67.0 77.0,66.0 Z" />
	<path style="fill:#595959;" d="M 78.6667,66.3333 C 78.2222,66.7778 79.2778,66.7222 79.3333,66.6667 79.7778,66.2222 78.7222,66.2778 78.6667,66.3333 Z" />
	<path style="fill:#2a2a2a;" d="M 80.0,66.0 L 80.0,67.0 84.0,67.0 C 82.494,66.317 81.6852,66.1741 80.0,66.0 Z" />
	<path style="fill:#898989;" d="M 84.0,66.0 L 85.0,67.0 84.0,66.0 Z" />
	<path style="fill:#a8a8a8;" d="M 32.0,67.0 L 33.0,68.0 32.0,67.0 Z" />
	<path style="fill:#595959;" d="M 33.0,67.0 L 34.0,68.0 33.0,67.0 Z" />
	<path style="fill:#2a2a2a;" d="M 71.0,67.0 C 71.5451,68.6352 71.3648,68.4549 73.0,69.0 72.4549,67.3648 72.6352,67.5451 71.0,67.0 Z" />
	<path style="fill:#bababa;" d="M 72.0,67.0 L 73.0,68.0 72.0,67.0 M 75.0,67.0 L 76.0,68.0 75.0,67.0 Z" />
	<path style="fill:#010101;" d="M 76.0,67.0 L 76.0,70.0 86.0,70.0 C 83.6677,66.4024 79.9871,67.0031 76.0,67.0 Z" />
	<path style="fill:#484848;" d="M 85.0,67.0 L 86.0,68.0 85.0,67.0 Z" />
	<path style="fill:#898989;" d="M 35.0,68.0 L 36.0,69.0 35.0,68.0 Z" />
	<path style="fill:#383838;" d="M 36.0,68.0 L 37.0,69.0 36.0,68.0 Z" />
	<path style="fill:#e3e3e3;" d="M 73.0,68.0 C 73.5451,69.6352 73.3648,69.4549 75.0,70.0 L 75.0,68.0 73.0,68.0 Z" />
	<path style="fill:#484848;" d="M 75.3333,68.6667 C 75.2778,68.7222 75.2222,69.7778 75.6667,69.3333 75.7223,69.2777 75.7778,68.2222 75.3333,68.6667 Z" />
	<path style="fill:#d5d5d5;" d="M 86.3333,68.6667 C 86.2778,68.7222 86.2222,69.7778 86.6667,69.3333 86.7222,69.2778 86.7778,68.2222 86.3333,68.6667 Z" />
	<path style="fill:#999999;" d="M 37.0,69.0 L 38.0,70.0 37.0,69.0 Z" />
	<path style="fill:#676767;" d="M 72.0,69.0 L 73.0,70.0 72.0,69.0 Z" />
	<path style="fill:#2a2a2a;" d="M 39.3333,70.6667 C 39.2778,70.7222 39.2222,71.7778 39.6667,71.3333 39.7222,71.2778 39.7778,70.2222 39.3333,70.6667 Z" />
	<path style="fill:#777777;" d="M 71.0,70.0 L 72.0,71.0 71.0,70.0 Z" />
	<path style="fill:#cacaca;" d="M 76.0,70.0 L 77.0,71.0 76.0,70.0 Z" />
	<path style="fill:#898989;" d="M 77.0,70.0 L 78.0,71.0 77.0,70.0 Z" />
	<path style="fill:#383838;" d="M 78.6667,70.3333 C 78.2222,70.7778 79.2778,70.7222 79.3333,70.6667 79.7778,70.2222 78.7222,70.2778 78.6667,70.3333 Z" />
	<path style="fill:#151515;" d="M 80.0,70.0 L 80.0,71.0 84.0,71.0 C 82.494,70.317 81.6852,70.1741 80.0,70.0 Z" />
	<path style="fill:#383838;" d="M 84.0,70.0 L 85.0,71.0 84.0,70.0 Z" />
	<path style="fill:#a8a8a8;" d="M 85.0,70.0 L 86.0,71.0 85.0,70.0 M 29.0,71.0 L 30.0,72.0 29.0,71.0 Z" />
	<path style="fill:#676767;" d="M 30.6667,71.3333 C 30.2222,71.7778 31.2778,71.7222 31.3333,71.6667 31.7778,71.2222 30.7222,71.2778 30.6667,71.3333 Z" />
	<path style="fill:#999999;" d="M 32.0,71.0 L 33.0,72.0 32.0,71.0 M 70.0,71.0 L 71.0,72.0 70.0,71.0 Z" />
	<path style="fill:#cacaca;" d="M 79.0,71.0 L 79.0,72.0 84.0,72.0 C 82.231,71.2211 80.9641,71.0876 79.0,71.0 Z" />
	<path style="fill:#595959;" d="M 28.0,72.0 L 27.0,74.0 C 28.2627,73.0287 28.3919,73.3063 28.0,72.0 Z" />
	<path style="fill:#010101;" d="M 27.0,76.0 C 30.3762,76.5648 32.0675,75.7683 35.0,74.0 31.5977,71.4767 28.9913,72.3913 27.0,76.0 Z" />
	<path style="fill:#898989;" d="M 34.0,72.0 L 35.0,73.0 34.0,72.0 Z" />
	<path style="fill:#a8a8a8;" d="M 38.0,72.0 L 39.0,73.0 38.0,72.0 Z" />
	<path style="fill:#595959;" d="M 68.0,72.0 L 69.0,73.0 68.0,72.0 Z" />
	<path style="fill:#cacaca;" d="M 69.0,72.0 L 70.0,73.0 69.0,72.0 Z" />
	<path style="fill:#e3e3e3;" d="M 73.6667,72.3333 C 73.2222,72.7778 74.2778,72.7222 74.3333,72.6667 74.7778,72.2222 73.7222,72.2778 73.6667,72.3333 Z" />
	<path style="fill:#a8a8a8;" d="M 35.0,73.0 L 36.0,74.0 35.0,73.0 Z" />
	<path style="fill:#bababa;" d="M 37.0,73.0 L 38.0,74.0 37.0,73.0 Z" />
	<path style="fill:#484848;" d="M 66.0,73.0 L 67.0,74.0 66.0,73.0 Z" />
	<path style="fill:#a8a8a8;" d="M 67.0,73.0 L 68.0,74.0 67.0,73.0 Z" />
	<path style="fill:#777777;" d="M 72.0,73.0 L 73.0,74.0 72.0,73.0 Z" />
	<path style="fill:#010101;" d="M 73.0,73.0 L 73.0,77.0 77.0,77.0 C 75.8465,74.7511 75.2489,74.1536 73.0,73.0 Z" />
	<path style="fill:#777777;" d="M 75.0,73.0 L 76.0,74.0 75.0,73.0 Z" />
	<path style="fill:#a8a8a8;" d="M 26.3333,74.6667 C 26.2778,74.7222 26.2222,75.7778 26.6667,75.3333 26.7222,75.2778 26.7778,74.2222 26.3333,74.6667 Z" />
	<path style="fill:#898989;" d="M 34.0,74.0 L 35.0,75.0 34.0,74.0 Z" />
	<path style="fill:#d5d5d5;" d="M 35.0,74.0 L 35.0,76.0 C 36.6352,75.4549 36.4549,75.6352 37.0,74.0 L 35.0,74.0 Z" />
	<path style="fill:#595959;" d="M 64.0,74.0 L 65.0,75.0 64.0,74.0 Z" />
	<path style="fill:#bababa;" d="M 65.0,74.0 L 66.0,75.0 65.0,74.0 Z" />
	<path style="fill:#2a2a2a;" d="M 72.3333,74.6667 C 72.2778,74.7222 72.2222,75.7778 72.6667,75.3333 72.7222,75.2778 72.7778,74.2222 72.3333,74.6667 Z" />
	<path style="fill:#484848;" d="M 76.0,74.0 L 77.0,75.0 76.0,74.0 Z" />
	<path style="fill:#383838;" d="M 32.0,75.0 L 33.0,76.0 32.0,75.0 Z" />
	<path style="fill:#bababa;" d="M 33.0,75.0 L 34.0,76.0 33.0,75.0 Z" />
	<path style="fill:#383838;" d="M 36.0,75.0 L 37.0,76.0 36.0,75.0 M 61.0,75.0 L 62.0,76.0 61.0,75.0 Z" />
	<path style="fill:#898989;" d="M 62.0,75.0 L 63.0,76.0 62.0,75.0 Z" />
	<path style="fill:#a8a8a8;" d="M 77.3333,75.6667 C 77.2778,75.7222 77.2222,76.7778 77.6667,76.3333 77.7222,76.2778 77.7778,75.2222 77.3333,75.6667 Z" />
	<path style="fill:#777777;" d="M 27.0,76.0 L 28.0,77.0 27.0,76.0 Z" />
	<path style="fill:#898989;" d="M 31.0,76.0 L 32.0,77.0 31.0,76.0 Z" />
	<path style="fill:#999999;" d="M 35.3333,76.6667 C 35.2778,76.7222 35.2222,77.7778 35.6667,77.3333 35.7222,77.2778 35.7778,76.2222 35.3333,76.6667 Z" />
	<path style="fill:#2a2a2a;" d="M 59.0,76.0 L 60.0,77.0 59.0,76.0 Z" />
	<path style="fill:#999999;" d="M 60.0,76.0 L 61.0,77.0 60.0,76.0 Z" />
	<path style="fill:#898989;" d="M 72.0,76.0 L 73.0,77.0 72.0,76.0 Z" />
	<path style="fill:#cacaca;" d="M 28.6667,77.3333 C 28.2222,77.7778 29.2778,77.7222 29.3333,77.6667 29.7778,77.2222 28.7222,77.2778 28.6667,77.3333 Z" />
	<path style="fill:#484848;" d="M 58.0,77.0 L 59.0,78.0 58.0,77.0 Z" />
	<path style="fill:#898989;" d="M 73.0,77.0 L 74.0,78.0 73.0,77.0 Z" />
	<path style="fill:#595959;" d="M 74.6667,77.3333 C 74.2222,77.7778 75.2778,77.7222 75.3333,77.6667 75.7778,77.2222 74.7222,77.2778 74.6667,77.3333 Z" />
	<path style="fill:#a8a8a8;" d="M 76.0,77.0 L 77.0,78.0 76.0,77.0 Z" />
	<path style="fill:#999999;" d="M 36.0,78.0 L 37.0,79.0 36.0,78.0 Z" />
	<path style="fill:#a8a8a8;" d="M 58.0,78.0 L 59.0,79.0 58.0,78.0 Z" />
	<path style="fill:#bababa;" d="M 38.0,79.0 L 38.0,80.0 41.0,80.0 C 39.7516,79.3152 39.4516,79.2512 38.0,79.0 Z" />
	<path style="fill:#777777;" d="M 41.6667,79.3333 C 41.2222,79.7778 42.2778,79.7222 42.3333,79.6667 42.7778,79.2222 41.7222,79.2778 41.6667,79.3333 Z" />
	<path style="fill:#484848;" d="M 43.0,79.0 L 44.0,80.0 43.0,79.0 Z" />
	<path style="fill:#383838;" d="M 58.0,79.0 L 59.0,80.0 58.0,79.0 Z" />
	<path style="fill:#bababa;" d="M 59.0,79.0 L 60.0,80.0 59.0,79.0 Z" />
	<path style="fill:#a8a8a8;" d="M 44.0,80.0 L 45.0,81.0 44.0,80.0 Z" />
	<path style="fill:#484848;" d="M 60.0,80.0 L 61.0,81.0 60.0,80.0 Z" />
	<path style="fill:#cacaca;" d="M 61.0,80.0 L 62.0,81.0 61.0,80.0 Z" />
	<path style="fill:#a8a8a8;" d="M 45.0,81.0 L 45.0,85.0 46.0,85.0 C 45.8259,83.3148 45.683,82.506 45.0,81.0 Z" />
	<path style="fill:#777777;" d="M 61.0,81.0 L 62.0,82.0 61.0,81.0 Z" />
	<path style="fill:#484848;" d="M 60.0,82.0 L 61.0,83.0 60.0,82.0 Z" />
	<path style="fill:#cacaca;" d="M 61.0,82.0 L 62.0,83.0 61.0,82.0 Z" />
	<path style="fill:#898989;" d="M 59.0,83.0 L 60.0,84.0 59.0,83.0 Z" />
	<path style="fill:#484848;" d="M 46.0,84.0 L 47.0,85.0 46.0,84.0 Z" />
	<path style="fill:#2a2a2a;" d="M 56.0,84.0 L 57.0,85.0 56.0,84.0 Z" />
	<path style="fill:#898989;" d="M 57.0,84.0 L 58.0,85.0 57.0,84.0 Z" />
	<path style="fill:#999999;" d="M 47.0,85.0 L 48.0,86.0 47.0,85.0 Z" />
	<path style="fill:#2a2a2a;" d="M 48.0,85.0 L 48.0,86.0 54.0,86.0 C 51.9479,85.1258 50.2528,85.0472 48.0,85.0 Z" />
	<path style="fill:#777777;" d="M 54.0,85.0 L 55.0,86.0 54.0,85.0 Z" />
	<path style="fill:#bababa;" d="M 55.0,85.0 L 56.0,86.0 55.0,85.0 Z" />
	<path style="fill:#e3e3e3;" d="M 49.0,86.0 L 49.0,87.0 52.0,87.0 C 50.7517,86.3152 50.4516,86.2512 49.0,86.0 Z" />
</g>
</svg>